<?xml version="1.0" encoding="utf-8"?>
<!-- Generator: Adobe Illustrator 22.0.1, SVG Export Plug-In . SVG Version: 6.00 Build 0)  -->
<svg version="1.1" xmlns="http://www.w3.org/2000/svg" xmlns:xlink="http://www.w3.org/1999/xlink" x="0px" y="0px"
	 viewBox="0 0 334.1 300" style="enable-background:new 0 0 334.1 300;" xml:space="preserve">
<style type="text/css">
	.st0{display:none;}
	.st1{fill:#FFFFFF;stroke:#231F20;stroke-width:3;stroke-miterlimit:10;}
	.st2{fill:#FFFFFF;}
	.st3{display:none;fill:none;stroke:#EC008C;stroke-width:4;stroke-miterlimit:10;}
	.st4{display:inline;fill:none;stroke:#EC008C;stroke-width:4;stroke-miterlimit:10;}
	.st5{fill:#A8D1EF;stroke:#603913;stroke-width:5;stroke-miterlimit:10;}
	.st6{fill:#F1F2F2;stroke:#FBB040;stroke-miterlimit:10;}
	.st7{fill:#FBB040;}
	.st8{fill:#754C29;}
	.st9{fill:#D1913D;}
	.st10{fill:#EF4136;}
	.st11{fill:#DAE8EF;}
	.st12{fill:none;stroke:#FBB040;stroke-miterlimit:10;}
	.st13{fill:none;}
	.st14{fill:#C2B59B;}
	.st15{fill:#939598;}
	.st16{fill:#C2B59B;stroke:#231F20;stroke-linecap:round;stroke-linejoin:round;stroke-miterlimit:10;}
	.st17{fill:none;stroke:#000000;stroke-linecap:round;stroke-linejoin:round;stroke-miterlimit:10;}
	.st18{fill:#A8D1EF;}
</style>
<g id="Layer_1">
</g>
<g id="Layer_4">
</g>
<g id="Layer_6">
</g>
<g id="Layer_3">
</g>
<g id="Layer_5">
</g>
<g id="Layer_2">
	<g>
		<ellipse class="st5" cx="167" cy="150" rx="131.4" ry="132.2"/>
		<g>
			<g>
				<g>
					
						<ellipse transform="matrix(0.3787 -0.9255 0.9255 0.3787 -37.8183 114.9208)" class="st6" cx="66.7" cy="85.6" rx="37.3" ry="20.6"/>
					
						<ellipse transform="matrix(0.4543 -0.8908 0.8908 0.4543 -59.6433 392.1756)" class="st7" cx="290.3" cy="244.8" rx="15.5" ry="6.1"/>
					<g id="XMLID_1_">
						<g>
							<path class="st8" d="M294.2,231.3c4.4,15.8-10.1,24.8-10.1,24.8l-73.7-40.6c6.3,0.6,14.7-5.3,20.4-14.8
								c5.4-8.9,6.8-18.4,4-23.9L294.2,231.3z"/>
							<path class="st9" d="M234.9,176.7c2.7,5.5,1.3,15-4,23.9c-5.7,9.5-14.1,15.4-20.4,14.8l-5-2.7l0,0c6.6,0.4,15.2-5.7,21-15.4
								c5.3-8.8,6.9-18.1,4.6-24L234.9,176.7z"/>
							<path class="st8" d="M204.7,212.3l-61.3-33.7c9,1.9,21.6-6.2,29.8-20c7.8-12.9,9.3-26.8,4.6-34.4l53.3,49
								c2.2,5.9,0.6,15.1-4.6,24c-5.9,9.8-14.5,15.8-21,15.4l0,0L204.7,212.3z"/>
							<path class="st10" d="M205.5,212.7l5,2.7c-1.2-0.1-2.4-0.4-3.5-1.1c-0.9-0.5-1.6-1.2-2.2-2.1L205.5,212.7z"/>
							<path class="st9" d="M177.8,124.3c4.8,7.5,3.2,21.4-4.6,34.4c-8.2,13.8-20.8,21.8-29.8,20l-5-2.8c8.9-0.1,20.4-8.7,28.5-22.1
								c7.2-12,9.7-24.5,7.2-32.7l0,0L177.8,124.3z"/>
							<path class="st8" d="M137.5,175.3l-56.4-31c10.9,0.4,25.3-10,35.3-26.7c9.8-16.3,12.3-33.4,7.4-43l49.5,45.4l1,0.9l0,0
								c2.4,8.2,0,20.8-7.2,32.7c-8.1,13.4-19.6,22-28.5,22.1L137.5,175.3z"/>
							<path class="st10" d="M138.5,175.9l5,2.8c-1.3-0.3-2.5-0.7-3.6-1.4c-0.7-0.4-1.3-0.9-1.8-1.4
								C138.2,175.9,138.3,175.9,138.5,175.9z"/>
							<path class="st9" d="M123.7,74.6c5,9.6,2.4,26.7-7.4,43c-10,16.7-24.4,27.1-35.3,26.7l-8.7-4.8c11.3,0.4,26.3-10.5,36.7-27.8
								c9.5-15.8,12.5-32.5,8.5-42.8L123.7,74.6z"/>
							<path class="st8" d="M70.4,138.4L55,129.9c12.1-0.4,27.6-12,38.4-30.1c9.5-15.9,13-32.6,10.1-43.8l13.1,12c0,0,0,0,0,0
								l0.9,0.9c3.9,10.2,1,26.9-8.5,42.8c-10.4,17.3-25.3,28.2-36.7,27.8L70.4,138.4z"/>
							<path class="st10" d="M117.5,68.9l-0.9-0.9c0.7,0.3,1.4,0.6,2.1,1c2.2,1.3,3.8,3.2,5.1,5.6L117.5,68.9z"/>
							<path class="st10" d="M72.3,139.4l8.7,4.8c-2.4-0.1-4.6-0.7-6.5-1.9c-1.3-0.8-2.5-1.8-3.4-3
								C71.5,139.4,71.9,139.4,72.3,139.4z"/>
							<path class="st9" d="M55,129.9c-3.2,0.1-6.1-0.6-8.7-2.1c-2-1.2-3.6-2.8-4.9-4.8l1.3,0.3c12.5,2.2,30.1-9.9,42-29.9
								c9.8-16.3,13.2-33.4,9.9-44.6l0,0c0-1-0.9-2.6-1.4-3.6c0,0,0-0.1,0-0.1c0-0.1-0.1-0.2-0.1-0.3l-0.1-0.1
								c-0.2-0.5-0.5-0.9-0.8-1.3c1.4,0.3,2.6,0.9,3.9,1.6c3.7,2.2,6.2,6.1,7.5,11c2.9,11.2-0.5,27.9-10.1,43.8
								C82.6,117.9,67.1,129.5,55,129.9z"/>
							<path class="st9" d="M41.4,122.9c-10.1-8.2-8.3-30.9,4.5-52.2C59.2,48.4,79.7,36,91.5,43.1c0,0,0.6,0.6,0.9,1l0.1,0.1
								l0.3,0.3l0.2,0.3c0.1,0.1,0.1,0.2,0.2,0.4c0,0,0,0,0,0.1c0.6,1.1,1,2.3,1.4,3.6l0,0c3.3,11.2-0.1,28.3-9.9,44.6
								c-11.9,19.9-29.5,32-42,29.9L41.4,122.9L41.4,122.9L41.4,122.9z M78.3,91.1c9.7-16.2,12.4-32.4,6.1-36.2
								C78,51,65,61.1,55.3,77.2c-9.7,16.2-12.4,32.4-6.1,36.2C55.5,117.3,68.6,107.2,78.3,91.1z"/>
							<path class="st11" d="M84.4,54.9c6.3,3.8,3.6,20-6.1,36.2c-9.7,16.2-22.8,26.2-29.1,22.4c-6.4-3.8-3.6-20,6.1-36.2
								C65,61.1,78,51,84.4,54.9z"/>
							<path class="st10" d="M94.5,48.8c-0.4-1.3-0.9-2.5-1.4-3.6C93.6,46.2,94.5,47.8,94.5,48.8z"/>
						</g>
						<g>
							<path class="st12" d="M93.1,45.2c0.5,1,1.4,2.6,1.4,3.6"/>
							<path class="st12" d="M92.9,44.8c0.1,0.1,0.1,0.2,0.2,0.4"/>
							<path class="st12" d="M92.5,44.2c0.1,0.1,0.2,0.2,0.3,0.3"/>
							<path class="st12" d="M41.4,122.9L41.4,122.9c-10.1-8.2-8.3-30.9,4.4-52.2C59.2,48.4,79.7,36,91.5,43.1c0,0,0.6,0.6,0.9,1"/>
							<path class="st12" d="M117.3,68.4c0.1,0.2,0.1,0.3,0.2,0.5c3.9,10.2,1,26.9-8.5,42.8c-10.4,17.3-25.3,28.2-36.7,27.8
								c-0.4,0-0.8,0-1.2-0.1"/>
							<path class="st12" d="M116.6,68c0.7,0.3,1.4,0.6,2.1,1"/>
							<path class="st12" d="M116.1,67.8c0.2,0,0.3,0.1,0.5,0.2"/>
							<path class="st12" d="M118.7,69c2.2,1.3,3.8,3.2,5.1,5.6c5,9.6,2.4,26.7-7.4,43c-10,16.7-24.4,27.1-35.3,26.7
								c-2.4-0.1-4.6-0.7-6.5-1.9c-1.3-0.8-2.5-1.8-3.4-3c-0.3-0.3-0.5-0.6-0.7-0.9c-0.1-0.1-0.1-0.2-0.2-0.3"/>
							<path class="st12" d="M231.1,173c0,0.1,0.1,0.2,0.1,0.3c2.2,5.9,0.6,15.1-4.6,24c-5.9,9.8-14.5,15.8-21,15.4"/>
							<path class="st12" d="M230.6,172.6c0.4,0.2,0.8,0.3,1.2,0.6c1.4,0.8,2.4,2,3.1,3.5c2.7,5.5,1.3,15-4,23.9
								c-5.7,9.5-14.1,15.4-20.4,14.8c-1.2-0.1-2.4-0.4-3.5-1.1c-0.9-0.5-1.6-1.2-2.2-2.1c0,0-0.1-0.1-0.1-0.1"/>
							<line class="st12" x1="41.4" y1="123" x2="41.4" y2="123"/>
							<path class="st12" d="M92.9,44.9c0.1,0.1,0.1,0.2,0.1,0.3c0,0,0,0,0,0.1c0.6,1.1,1,2.3,1.4,3.6l0,0
								c3.3,11.2-0.1,28.3-9.9,44.6c-11.9,19.9-29.5,32-42,29.9"/>
							<path class="st12" d="M92,43.3c0,0,0.1,0.1,0.1,0.1c0.3,0.4,0.5,0.9,0.8,1.3"/>
							<path class="st12" d="M92.9,44.9l-0.1-0.1l-0.2-0.3l-0.3-0.3l-0.1-0.1l-0.5-0.7c0,0,0.1,0,0.2,0c1.4,0.3,2.6,0.9,3.9,1.6
								c3.7,2.2,6.2,6.1,7.5,11c2.9,11.2-0.5,27.9-10.1,43.8c-10.8,18.1-26.3,29.7-38.4,30.1c-3.2,0.1-6.1-0.6-8.7-2.1
								c-2-1.2-3.6-2.8-4.9-4.8l1.3,0.3"/>
							<path class="st12" d="M174.2,121c2.4,8.2,0,20.8-7.2,32.7c-8.1,13.4-19.6,22-28.5,22.1c-0.1,0-0.3,0-0.4,0
								c-0.1,0-0.2,0-0.2,0"/>
							<path class="st12" d="M173.2,120c0.2,0.1,0.5,0.3,0.7,0.4c1.6,1,2.9,2.3,3.9,3.9c4.8,7.5,3.2,21.4-4.6,34.4
								c-8.2,13.8-20.8,21.8-29.8,20c-1.3-0.3-2.5-0.7-3.6-1.4c-0.7-0.4-1.3-0.9-1.8-1.4c-0.2-0.2-0.4-0.3-0.5-0.5
								c0,0-0.1-0.1-0.1-0.1"/>
							<path class="st12" d="M78.3,91.1c-9.7,16.2-22.8,26.2-29.1,22.4c-6.4-3.8-3.6-20,6.1-36.2C65,61.1,78,51,84.4,54.9
								C90.7,58.7,88,74.9,78.3,91.1z"/>
							<polyline class="st12" points="116.6,68 103.5,56 103.1,55.7 							"/>
							<path class="st12" d="M54.7,129.8l0.3,0.1l15.5,8.5l1.9,1l8.7,4.8l56.4,31l1,0.5l5,2.8l61.3,33.7l0.7,0.4l5,2.7l73.7,40.6
								c0,0,14.6-9,10.1-24.8l-59.3-54.5l-3.7-3.4l-53.3-49l-3.6-3.3l-1-0.9l-49.5-45.4l-6.2-5.7l-0.9-0.9c0,0,0,0,0,0"/>
						</g>
					</g>
				</g>
			</g>
			<g>
				<g>
					
						<ellipse transform="matrix(0.9255 -0.3787 0.3787 0.9255 -12.5137 107.6202)" class="st6" cx="267.4" cy="85.6" rx="20.6" ry="37.3"/>
					
						<ellipse transform="matrix(0.8908 -0.4543 0.4543 0.8908 -106.4266 46.6009)" class="st7" cx="43.8" cy="244.8" rx="6.1" ry="15.5"/>
					<g id="XMLID_2_">
						<g>
							<path class="st8" d="M39.8,231.3C35.4,247,50,256,50,256l73.7-40.6c-6.3,0.6-14.7-5.3-20.4-14.8c-5.4-8.9-6.8-18.4-4-23.9
								L39.8,231.3z"/>
							<path class="st9" d="M99.2,176.7c-2.7,5.5-1.3,15,4,23.9c5.7,9.5,14.1,15.4,20.4,14.8l5-2.7l0,0c-6.6,0.4-15.2-5.7-21-15.4
								c-5.3-8.8-6.9-18.1-4.6-24L99.2,176.7z"/>
							<path class="st8" d="M129.3,212.3l61.3-33.7c-9,1.9-21.6-6.2-29.8-20c-7.8-12.9-9.3-26.8-4.6-34.4l-53.3,49
								c-2.2,5.9-0.6,15.1,4.6,24c5.9,9.8,14.5,15.8,21,15.4l0,0L129.3,212.3z"/>
							<path class="st10" d="M128.6,212.7l-5,2.7c1.2-0.1,2.4-0.4,3.5-1.1c0.9-0.5,1.6-1.2,2.2-2.1L128.6,212.7z"/>
							<path class="st9" d="M156.2,124.3c-4.8,7.5-3.2,21.4,4.6,34.4c8.2,13.8,20.8,21.8,29.8,20l5-2.8c-8.9-0.1-20.4-8.7-28.5-22.1
								c-7.2-12-9.7-24.5-7.2-32.7l0,0L156.2,124.3z"/>
							<path class="st8" d="M196.6,175.3l56.4-31c-10.9,0.4-25.3-10-35.3-26.7c-9.8-16.3-12.3-33.4-7.4-43L160.9,120l-1,0.9l0,0
								c-2.4,8.2,0,20.8,7.2,32.7c8.1,13.4,19.6,22,28.5,22.1L196.6,175.3z"/>
							<path class="st10" d="M195.6,175.9l-5,2.8c1.3-0.3,2.5-0.7,3.6-1.4c0.7-0.4,1.3-0.9,1.8-1.4
								C195.9,175.9,195.7,175.9,195.6,175.9z"/>
							<path class="st9" d="M210.3,74.6c-5,9.6-2.4,26.7,7.4,43c10,16.7,24.4,27.1,35.3,26.7l8.7-4.8c-11.3,0.4-26.3-10.5-36.7-27.8
								c-9.5-15.8-12.5-32.5-8.5-42.8L210.3,74.6z"/>
							<path class="st8" d="M263.6,138.4l15.5-8.5c-12.1-0.4-27.6-12-38.4-30.1c-9.5-15.9-13-32.6-10.1-43.8l-13.1,12c0,0,0,0,0,0
								l-0.9,0.9c-3.9,10.2-1,26.9,8.5,42.8c10.4,17.3,25.3,28.2,36.7,27.8L263.6,138.4z"/>
							<path class="st10" d="M216.5,68.9l0.9-0.9c-0.7,0.3-1.4,0.6-2.1,1c-2.2,1.3-3.8,3.2-5.1,5.6L216.5,68.9z"/>
							<path class="st10" d="M261.7,139.4l-8.7,4.8c2.4-0.1,4.6-0.7,6.5-1.9c1.3-0.8,2.5-1.8,3.4-3
								C262.5,139.4,262.1,139.4,261.7,139.4z"/>
							<path class="st9" d="M279.1,129.9c3.2,0.1,6.1-0.6,8.7-2.1c2-1.2,3.6-2.8,4.9-4.8l-1.3,0.3c-12.5,2.2-30.1-9.9-42-29.9
								c-9.8-16.3-13.2-33.4-9.9-44.6l0,0c0-1,0.9-2.6,1.4-3.6c0,0,0-0.1,0-0.1c0-0.1,0.1-0.2,0.1-0.3l0.1-0.1
								c0.2-0.5,0.5-0.9,0.8-1.3c-1.4,0.3-2.6,0.9-3.9,1.6c-3.7,2.2-6.2,6.1-7.5,11c-2.9,11.2,0.5,27.9,10.1,43.8
								C251.5,117.9,267,129.5,279.1,129.9z"/>
							<path class="st9" d="M292.7,122.9c10.1-8.2,8.3-30.9-4.5-52.2c-13.4-22.3-33.9-34.7-45.7-27.6c0,0-0.6,0.6-0.9,1l-0.1,0.1
								l-0.3,0.3l-0.2,0.3c-0.1,0.1-0.1,0.2-0.2,0.4c0,0,0,0,0,0.1c-0.6,1.1-1,2.3-1.4,3.6l0,0c-3.3,11.2,0.1,28.3,9.9,44.6
								c11.9,19.9,29.5,32,42,29.9L292.7,122.9L292.7,122.9L292.7,122.9z M255.8,91.1c-9.7-16.2-12.4-32.4-6.1-36.2
								c6.4-3.8,19.4,6.2,29.1,22.4c9.7,16.2,12.4,32.4,6.1,36.2C278.5,117.3,265.5,107.2,255.8,91.1z"/>
							<path class="st11" d="M249.7,54.9c-6.3,3.8-3.6,20,6.1,36.2c9.7,16.2,22.8,26.2,29.1,22.4c6.4-3.8,3.6-20-6.1-36.2
								C269.1,61.1,256,51,249.7,54.9z"/>
							<path class="st10" d="M239.5,48.8c0.4-1.3,0.9-2.5,1.4-3.6C240.4,46.2,239.6,47.8,239.5,48.8z"/>
						</g>
						<g>
							<path class="st12" d="M241,45.2c-0.5,1-1.4,2.6-1.4,3.6"/>
							<path class="st12" d="M241.2,44.8c-0.1,0.1-0.1,0.2-0.2,0.4"/>
							<path class="st12" d="M241.6,44.2c-0.1,0.1-0.2,0.2-0.3,0.3"/>
							<path class="st12" d="M292.7,122.9L292.7,122.9c10.1-8.2,8.3-30.9-4.4-52.2c-13.4-22.3-33.9-34.7-45.7-27.6
								c0,0-0.6,0.6-0.9,1"/>
							<path class="st12" d="M216.7,68.4c-0.1,0.2-0.1,0.3-0.2,0.5c-3.9,10.2-1,26.9,8.5,42.8c10.4,17.3,25.3,28.2,36.7,27.8
								c0.4,0,0.8,0,1.2-0.1"/>
							<path class="st12" d="M217.5,68c-0.7,0.3-1.4,0.6-2.1,1"/>
							<path class="st12" d="M218,67.8c-0.2,0-0.3,0.1-0.5,0.2"/>
							<path class="st12" d="M215.4,69c-2.2,1.3-3.8,3.2-5.1,5.6c-5,9.6-2.4,26.7,7.4,43c10,16.7,24.4,27.1,35.3,26.7
								c2.4-0.1,4.6-0.7,6.5-1.9c1.3-0.8,2.5-1.8,3.4-3c0.3-0.3,0.5-0.6,0.7-0.9c0.1-0.1,0.1-0.2,0.2-0.3"/>
							<path class="st12" d="M103,173c0,0.1-0.1,0.2-0.1,0.3c-2.2,5.9-0.6,15.1,4.6,24c5.9,9.8,14.5,15.8,21,15.4"/>
							<path class="st12" d="M103.5,172.6c-0.4,0.2-0.8,0.3-1.2,0.6c-1.4,0.8-2.4,2-3.1,3.5c-2.7,5.5-1.3,15,4,23.9
								c5.7,9.5,14.1,15.4,20.4,14.8c1.2-0.1,2.4-0.4,3.5-1.1c0.9-0.5,1.6-1.2,2.2-2.1c0,0,0.1-0.1,0.1-0.1"/>
							<line class="st12" x1="292.7" y1="123" x2="292.7" y2="123"/>
							<path class="st12" d="M241.1,44.9c-0.1,0.1-0.1,0.2-0.1,0.3c0,0,0,0,0,0.1c-0.6,1.1-1,2.3-1.4,3.6l0,0
								c-3.3,11.2,0.1,28.3,9.9,44.6c11.9,19.9,29.5,32,42,29.9"/>
							<path class="st12" d="M242,43.3c0,0-0.1,0.1-0.1,0.1c-0.3,0.4-0.5,0.9-0.8,1.3"/>
							<path class="st12" d="M241.1,44.9l0.1-0.1l0.2-0.3l0.3-0.3l0.1-0.1l0.5-0.7c0,0-0.1,0-0.2,0c-1.4,0.3-2.6,0.9-3.9,1.6
								c-3.7,2.2-6.2,6.1-7.5,11c-2.9,11.2,0.5,27.9,10.1,43.8c10.8,18.1,26.3,29.7,38.4,30.1c3.2,0.1,6.1-0.6,8.7-2.1
								c2-1.2,3.6-2.8,4.9-4.8l-1.3,0.3"/>
							<path class="st12" d="M159.9,121c-2.4,8.2,0,20.8,7.2,32.7c8.1,13.4,19.6,22,28.5,22.1c0.1,0,0.3,0,0.4,0c0.1,0,0.2,0,0.2,0"
								/>
							<path class="st12" d="M160.9,120c-0.2,0.1-0.5,0.3-0.7,0.4c-1.6,1-2.9,2.3-3.9,3.9c-4.8,7.5-3.2,21.4,4.6,34.4
								c8.2,13.8,20.8,21.8,29.8,20c1.3-0.3,2.5-0.7,3.6-1.4c0.7-0.4,1.3-0.9,1.8-1.4c0.2-0.2,0.4-0.3,0.5-0.5c0,0,0.1-0.1,0.1-0.1"
								/>
							<path class="st12" d="M255.8,91.1c9.7,16.2,22.8,26.2,29.1,22.4c6.4-3.8,3.6-20-6.1-36.2C269.1,61.1,256,51,249.7,54.9
								C243.3,58.7,246.1,74.9,255.8,91.1z"/>
							<polyline class="st12" points="217.5,68 230.6,56 231,55.7 							"/>
							<path class="st12" d="M279.3,129.8l-0.3,0.1l-15.5,8.5l-1.9,1l-8.7,4.8l-56.4,31l-1,0.5l-5,2.8l-61.3,33.7l-0.7,0.4l-5,2.7
								L50,256c0,0-14.6-9-10.1-24.8l59.3-54.5l3.7-3.4l53.3-49l3.6-3.3l1-0.9l49.5-45.4l6.2-5.7l0.9-0.9c0,0,0,0,0,0"/>
						</g>
					</g>
				</g>
			</g>
		</g>
		<path class="st13" d="M91.1,247.6c0,0,59.7,20.5,152.3-2.4"/>
		<path class="st13" d="M243.4,245.2l3.7,8.7c0,0-106.8,29.7-158.5,0s0,0,0,0l2.5-6.3"/>
	</g>
	<g>
		<g>
			<path class="st14" d="M222,157.2c6.7,0,12.2,5.5,12.2,12.2s-5.5,12.2-12.2,12.2"/>
			<path class="st14" d="M111.1,182.9c-6.7,0-12.2-5.5-12.2-12.2c0-6.7,5.5-12.2,12.2-12.2"/>
			<g>
				<path class="st15" d="M173.2,238.4h-13.5c-27.6,0-50.2-22.6-50.2-50.2V156c0-27.6,22.6-50.2,50.2-50.2h13.5
					c27.6,0,50.2,22.6,50.2,50.2v32.1C223.4,215.8,200.8,238.4,173.2,238.4z"/>
				<path class="st14" d="M203.3,183h-74.2c-4.8,0-8.6-3.9-8.6-8.6v-48.1c0-4.8,3.9-8.6,8.6-8.6h74.2c4.8,0,8.6,3.9,8.6,8.6v48.1
					C212,179.1,208.1,183,203.3,183z"/>
				<path class="st16" d="M177.7,177.8c0,6.7-5.4,12.1-12.1,12.1s-12.1-5.4-12.1-12.1"/>
				<circle cx="144.9" cy="162" r="5.2"/>
				<path d="M154,152.3l-19.8-6.3c-0.4-0.1-0.6-0.5-0.5-0.9l1.2-3.9c0.1-0.4,0.5-0.6,0.9-0.5l19.8,6.3c0.4,0.1,0.6,0.5,0.5,0.9
					l-1.2,3.9C154.8,152.3,154.4,152.5,154,152.3z"/>
				<path d="M195.4,140.8l-19.8,6.3c-0.4,0.1-0.6,0.5-0.5,0.9l1.2,3.9c0.1,0.4,0.5,0.6,0.9,0.5l19.8-6.3c0.4-0.1,0.6-0.5,0.5-0.9
					l-1.2-3.9C196.2,140.9,195.8,140.7,195.4,140.8z"/>
				<path d="M199.4,170.8h-23.2c-1,0-1.7-0.8-1.7-1.7v-15.4c0-1,0.8-1.7,1.7-1.7h23.2c1,0,1.7,0.8,1.7,1.7v15.4
					C201.2,170.1,200.4,170.8,199.4,170.8z"/>
				<path class="st17" d="M161.4,134.3c0,0,8.9,27.7,62.9,45.9"/>
				<path d="M250.7,107.6c-3.9,0.3-7.7,1.1-11.6,1.6c-5,0.7-10.1,1.8-15.1,1.7c-4.2-0.1-6.9-1.8-8.3-4.9c-0.2-1-0.2-2-0.2-3.2
					c0.6-9-1.7-17.3-6.4-24.9c-8.3-13.3-21-19.7-36.2-21.7c-22.2-2.9-46.1,7-52.3,32.5c-1.7,4.7-2.5,9.6-2.4,14.8
					c-1.3,3.2-4,5-8.4,5.1c-5,0.1-10.1-1.1-15.1-1.7c-3.9-0.5-7.7-1.4-11.6-1.6c-3-0.2-4.6,1.6-4.3,4.4c0,0,0,0-0.1,0
					c0,0.1,0.1,0.3,0.1,0.4c0,0,0,0.1,0,0.1c1.7,7.7,3.8,15.2,7.2,22.1c1.5,4.7,3,9.4,4.9,13.9c3.3,7.7,7.7,9.1,15.1,5.3
					c13.2-6.7,27-11.7,41.7-14c27.1-4.2,52.7-0.2,76.5,13.7c5.2,3,7.6,2.9,12-1.3c10.7-10.2,15.2-23.6,18.2-37.5
					C255.5,109.4,253.9,107.4,250.7,107.6z"/>
			</g>
		</g>
		<path class="st17" d="M160.6,210c0,0,6.3-4.6,12.9,0"/>
	</g>
</g>
</svg>
