<?xml version="1.0" standalone="no"?>
<!DOCTYPE svg PUBLIC "-//W3C//DTD SVG 1.1//EN" "http://www.w3.org/Graphics/SVG/1.1/DTD/svg11.dtd" >
<svg xmlns="http://www.w3.org/2000/svg">
<metadata>Generated by IcoMoon</metadata>
<defs>
<font id="icomoon" horiz-adv-x="1024">
<font-face units-per-em="1024" ascent="960" descent="-64" />
<missing-glyph horiz-adv-x="1024" />
<glyph unicode="&#x20;" horiz-adv-x="512" d="" />
<glyph unicode="&#xe900;" glyph-name="Dock" d="M-106.667-64l1237.333-4.267-68.267 89.6h-1105.067zM-21.333 46.933h1066.667l-76.8 98.133h-917.333zM149.333 273.067l-81.067-102.4h878.933l-76.8 102.4zM166.4 298.667h686.933l-81.067 102.4h-529.067zM260.267 422.4l494.933 4.267-29.867 34.133h-435.2zM755.2 686.933h85.333v-384h-85.333v384zM179.2 686.933h85.333v-384h-85.333v384z" />
<glyph unicode="&#xe901;" horiz-adv-x="1140" d="M1018.539 448c0-249.214-200.806-451.243-448.512-451.243s-448.512 202.028-448.512 451.243c0 249.214 200.806 451.243 448.512 451.243s448.512-202.028 448.512-451.243z" />
<glyph unicode="&#xe902;" horiz-adv-x="1140" d="M275.761 785.628c35.941-14.706 43.49-79.383 16.861-144.46s-77.351-105.91-113.291-91.204c-35.941 14.706-43.49 79.383-16.861 144.46s77.351 105.91 113.291 91.204z" />
<glyph unicode="&#xe903;" horiz-adv-x="1140" d="M1014.953 171.583c10.244-5.224 7.787-30.56-5.488-56.588s-32.34-42.894-42.583-37.67c-10.244 5.224-7.787 30.56 5.488 56.588s32.34 42.894 42.583 37.67z" />
<glyph unicode="&#xe904;" horiz-adv-x="1140" d="M1004.203 170.496c15.019-53.931-34.475-84.651-34.475-84.651l-251.563 138.581c21.504-2.048 50.176 18.091 69.632 50.517 18.432 30.379 23.211 62.805 13.653 81.579l202.752-186.027z" />
<glyph unicode="&#xe905;" horiz-adv-x="1140" d="M801.792 356.864c9.216-18.773 4.437-51.2-13.653-81.579-19.456-32.427-48.128-52.565-69.632-50.517l-17.067 9.216c22.528-1.365 51.883 19.456 71.68 52.565 18.091 30.037 23.552 61.781 15.701 81.92l12.971-11.605z" />
<glyph unicode="&#xe906;" horiz-adv-x="1140" d="M698.709 235.349l-209.237 115.029c30.72-6.485 73.728 21.163 101.717 68.267 26.624 44.032 31.744 91.477 15.701 117.419l181.931-167.253c7.509-20.139 2.048-51.541-15.701-81.92-20.139-33.451-49.493-53.931-71.68-52.565v0l-2.731 1.024z" />
<glyph unicode="&#xe907;" horiz-adv-x="1140" d="M701.44 233.984l17.067-9.216c-4.096 0.341-8.192 1.365-11.947 3.755-3.072 1.707-5.461 4.096-7.509 7.168l2.389-1.707z" />
<glyph unicode="&#xe908;" horiz-adv-x="1140" d="M606.891 535.723c16.384-25.6 10.923-73.045-15.701-117.419-27.989-47.104-70.997-74.411-101.717-68.267l-17.067 9.557c30.379 0.341 69.632 29.696 97.28 75.435 24.576 40.96 33.109 83.627 24.576 111.616v0l12.629-10.923z" />
<glyph unicode="&#xe909;" horiz-adv-x="1140" d="M469.333 361.643l-192.512 105.813c37.205-1.365 86.357 34.133 120.491 91.136 33.451 55.637 41.984 114.005 25.259 146.773l172.373-158.037c8.192-27.989 0-70.997-24.576-111.616-27.648-45.739-66.901-75.093-97.28-75.435l-3.755 1.365z" />
<glyph unicode="&#xe90a;" horiz-adv-x="1140" d="M472.747 359.595l17.067-9.557c-4.437 1.024-8.533 2.389-12.288 4.779-2.389 1.365-4.437 3.072-6.144 4.779 0.341 0 0.683 0 1.365 0z" />
<glyph unicode="&#xe90b;" horiz-adv-x="1140" d="M422.229 705.365c17.067-32.768 8.192-91.136-25.259-146.773-34.133-57.003-83.285-92.501-120.491-91.136l-29.696 16.384c38.571-1.365 89.771 35.84 125.269 94.891 32.427 53.931 42.667 110.933 29.013 146.091l21.163-19.456z" />
<glyph unicode="&#xe90c;" horiz-adv-x="1140" d="M240.299 487.595l-52.565 29.013c41.301 1.365 94.208 40.96 131.072 102.741 32.427 54.272 44.373 111.275 34.475 149.504l44.715-40.96c0 0 0 0 0 0l3.072-3.072c13.312-34.816 3.413-91.819-29.013-146.091-35.499-59.051-86.357-96.256-125.269-94.891l-6.485 3.755z" />
<glyph unicode="&#xe90d;" horiz-adv-x="1140" d="M401.067 724.821l-3.072 3.072c2.389-1.024 4.779-2.048 7.168-3.413 7.509-4.437 12.971-10.923 17.408-19.115l-21.504 19.456z" />
<glyph unicode="&#xe90e;" horiz-adv-x="1140" d="M246.784 484.181l29.696-16.384c-8.192 0.341-15.701 2.389-22.187 6.485-4.437 2.731-8.533 6.144-11.605 10.24 1.365-0.341 2.731-0.341 4.096-0.341z" />
<glyph unicode="&#xe90f;" horiz-adv-x="1140" d="M187.733 516.608c-10.923-0.341-20.821 2.048-29.696 7.168-6.827 4.096-12.288 9.557-16.725 16.384l4.437-1.024c42.667-7.509 102.741 33.792 143.36 102.059 33.451 55.637 45.056 114.005 33.792 152.235v0c0 3.413-3.072 8.875-4.779 12.288 0 0 0 0.341 0 0.341 0 0.341-0.341 0.683-0.341 1.024l-0.341 0.341c-0.683 1.707-1.707 3.072-2.731 4.437 4.779-1.024 8.875-3.072 13.312-5.461 12.629-7.509 21.163-20.821 25.6-37.547 9.899-38.229-1.707-95.232-34.475-149.504-37.205-61.781-90.112-101.376-131.413-102.741z" />
<glyph unicode="&#xe910;" horiz-adv-x="1140" d="M141.312 540.501c-34.475 27.989-28.331 105.472 15.36 178.176 45.397 76.117 115.371 118.443 155.648 94.208 0 0 2.048-2.048 3.072-3.413l1.365-1.365 0.683-1.024c0.341-0.341 0.341-0.683 0.683-1.365 0 0 0 0 0-0.341 2.048-3.755 3.413-7.851 4.779-12.288v0c11.264-38.229-0.341-96.597-33.792-152.235-40.619-67.925-100.693-109.227-143.36-102.059l-4.437 1.707zM267.264 649.045c33.109 55.296 42.325 110.592 20.821 123.563-21.845 13.312-66.219-21.163-99.328-76.117-33.109-55.296-42.325-110.592-20.821-123.563 21.504-13.312 66.219 21.163 99.328 76.117z" />
<glyph unicode="&#xe911;" horiz-adv-x="1140" d="M288.085 772.608c21.504-12.971 12.288-68.267-20.821-123.563s-77.824-89.429-99.328-76.459c-21.845 12.971-12.288 68.267 20.821 123.563s77.483 89.771 99.328 76.459z" />
<glyph unicode="&#xe912;" horiz-adv-x="1140" d="M322.56 793.429c-1.365 4.437-3.072 8.533-4.779 12.288 1.707-3.413 4.779-8.875 4.779-12.288z" />
<glyph unicode="&#xe913;" horiz-adv-x="1140" d="M977.739 694.52c26.628-65.077 19.079-129.754-16.861-144.46s-86.663 26.127-113.291 91.204c-26.628 65.077-19.079 129.754 16.861 144.46s86.663-26.127 113.291-91.204z" />
<glyph unicode="&#xe914;" horiz-adv-x="1140" d="M168.062 133.976c13.274-26.029 15.731-51.364 5.488-56.588s-29.309 11.641-42.583 37.67c-13.274 26.029-15.731 51.364-5.488 56.588s29.309-11.641 42.583-37.67z" />
<glyph unicode="&#xe915;" horiz-adv-x="1140" d="M135.851 170.496c-15.019-53.589 34.816-84.309 34.816-84.309l251.563 138.581c-21.504-2.048-50.176 18.091-69.632 50.517-18.432 30.379-23.211 62.805-13.653 81.579l-203.093-186.368z" />
<glyph unicode="&#xe916;" horiz-adv-x="1140" d="M338.603 356.864c-9.216-18.773-4.437-51.2 13.653-81.579 19.456-32.427 48.128-52.565 69.632-50.517l17.067 9.216c-22.528-1.365-51.883 19.456-71.68 52.565-18.091 30.037-23.552 61.781-15.701 81.92l-12.971-11.605z" />
<glyph unicode="&#xe917;" horiz-adv-x="1140" d="M441.344 235.349l209.237 115.029c-30.72-6.485-73.728 21.163-101.717 68.267-26.624 44.032-31.744 91.477-15.701 117.419l-181.931-167.253c-7.509-20.139-2.048-51.541 15.701-81.92 20.139-33.451 49.493-53.931 71.68-52.565v0l2.731 1.024z" />
<glyph unicode="&#xe918;" horiz-adv-x="1140" d="M438.955 233.984l-17.067-9.216c4.096 0.341 8.192 1.365 11.947 3.755 3.072 1.707 5.461 4.096 7.509 7.168l-2.389-1.707z" />
<glyph unicode="&#xe919;" horiz-adv-x="1140" d="M533.163 535.723c-16.384-25.6-10.923-73.045 15.701-117.419 27.989-47.104 70.997-74.411 101.717-68.267l17.067 9.557c-30.379 0.341-69.632 29.696-97.28 75.435-24.576 40.96-33.109 83.627-24.576 111.616v0l-12.629-10.923z" />
<glyph unicode="&#xe91a;" horiz-adv-x="1140" d="M671.061 361.643l192.512 105.813c-37.205-1.365-86.357 34.133-120.491 91.136-33.451 55.637-41.984 114.005-25.259 146.773l-172.032-158.037c-8.192-27.989 0-70.997 24.576-111.616 27.648-45.739 66.901-75.093 97.28-75.435l3.413 1.365z" />
<glyph unicode="&#xe91b;" horiz-adv-x="1140" d="M667.648 359.595l-17.067-9.557c4.437 1.024 8.533 2.389 12.288 4.779 2.389 1.365 4.437 3.072 6.144 4.779-0.341 0-1.024 0-1.365 0z" />
<glyph unicode="&#xe91c;" horiz-adv-x="1140" d="M717.824 705.365c-17.067-32.768-8.192-91.136 25.259-146.773 34.133-57.003 83.285-92.501 120.491-91.136l29.696 16.384c-38.571-1.365-89.771 35.84-125.269 94.891-32.427 53.931-42.667 110.933-29.013 146.091l-21.163-19.456z" />
<glyph unicode="&#xe91d;" horiz-adv-x="1140" d="M899.755 487.595l52.907 29.013c-41.301 1.365-94.208 40.96-131.072 102.741-32.427 54.272-44.373 111.275-34.475 149.504l-44.715-40.96c0 0 0 0 0 0l-3.072-3.072c-13.312-34.816-3.413-91.819 29.013-146.091 35.499-59.051 86.357-96.256 125.269-94.891l6.144 3.755z" />
<glyph unicode="&#xe91e;" horiz-adv-x="1140" d="M738.987 724.821l3.072 3.072c-2.389-1.024-4.779-2.048-7.168-3.413-7.509-4.437-12.971-10.923-17.408-19.115l21.504 19.456z" />
<glyph unicode="&#xe91f;" horiz-adv-x="1140" d="M893.269 484.181l-29.696-16.384c8.192 0.341 15.701 2.389 22.187 6.485 4.437 2.731 8.533 6.144 11.605 10.24-1.365-0.341-2.731-0.341-4.096-0.341z" />
<glyph unicode="&#xe920;" horiz-adv-x="1140" d="M952.661 516.608c10.923-0.341 20.821 2.048 29.696 7.168 6.827 4.096 12.288 9.557 16.725 16.384l-4.437-1.024c-42.667-7.509-102.741 33.792-143.36 102.059-33.451 55.637-45.056 114.005-33.792 152.235v0c0 3.413 3.072 8.875 4.779 12.288 0 0 0 0.341 0 0.341 0 0.341 0.341 0.683 0.341 1.024l0.341 0.341c0.683 1.707 1.707 3.072 2.731 4.437-4.779-1.024-8.875-3.072-13.312-5.461-12.629-7.509-21.163-20.821-25.6-37.547-9.899-38.229 1.707-95.232 34.475-149.504 37.205-61.781 90.112-101.376 131.413-102.741z" />
<glyph unicode="&#xe921;" horiz-adv-x="1140" d="M999.083 540.501c34.475 27.989 28.331 105.472-15.36 178.176-45.739 76.117-115.712 118.443-155.989 94.208 0 0-2.048-2.048-3.072-3.413l-1.365-1.365-0.683-1.024c-0.341-0.341-0.341-0.683-0.683-1.365 0 0 0 0 0-0.341-2.048-3.755-3.413-7.851-4.779-12.288v0c-11.264-38.229 0.341-96.597 33.792-152.235 40.619-67.925 100.693-109.227 143.36-102.059l4.779 1.707zM873.131 649.045c-33.109 55.296-42.325 110.592-20.821 123.563 21.845 12.971 66.219-21.163 99.328-76.459s42.325-110.592 20.821-123.563c-21.845-12.971-66.219 21.504-99.328 76.459z" />
<glyph unicode="&#xe922;" horiz-adv-x="1140" d="M852.309 772.608c-21.504-12.971-12.288-68.267 20.821-123.563s77.824-89.429 99.328-76.459c21.845 12.971 12.288 68.267-20.821 123.563s-77.824 89.771-99.328 76.459z" />
<glyph unicode="&#xe923;" horiz-adv-x="1140" d="M817.493 793.429c1.365 4.437 3.072 8.533 4.779 12.288-1.707-3.413-4.437-8.875-4.779-12.288z" />
<glyph unicode="&#xe924;" horiz-adv-x="1140" d="M757.76 423.424c22.869 0 41.643-18.773 41.643-41.643s-18.773-41.643-41.643-41.643z" />
<glyph unicode="&#xe925;" horiz-adv-x="1140" d="M379.221 335.701c-22.869 0-41.643 18.773-41.643 41.643s18.773 41.643 41.643 41.643z" />
<glyph unicode="&#xe926;" horiz-adv-x="1140" d="M591.189 146.261h-46.080c-94.208 0-171.349 77.141-171.349 171.349v109.909c0 94.208 77.141 171.349 171.349 171.349h46.080c94.208 0 171.349-77.141 171.349-171.349v-109.568c0-94.549-77.141-171.691-171.349-171.691z" />
<glyph unicode="&#xe927;" horiz-adv-x="1140" d="M693.931 335.36h-253.269c-16.384 0-29.355 13.312-29.355 29.355v164.181c0 16.384 13.312 29.355 29.355 29.355h253.269c16.384 0 29.355-13.312 29.355-29.355v-164.181c0.341-16.043-12.971-29.355-29.355-29.355z" />
<glyph unicode="&#xe928;" horiz-adv-x="1140" d="M606.549 353.109c0-22.869-18.432-41.301-41.301-41.301s-41.301 18.432-41.301 41.301" />
<glyph unicode="&#xe929;" horiz-adv-x="1140" d="M512.341 407.040c0-9.803-7.947-17.749-17.749-17.749s-17.749 7.947-17.749 17.749c0 9.803 7.947 17.749 17.749 17.749s17.749-7.947 17.749-17.749z" />
<glyph unicode="&#xe92a;" horiz-adv-x="1140" d="M525.653 440.149l-67.584 21.504c-1.365 0.341-2.048 1.707-1.707 3.072l4.096 13.312c0.341 1.365 1.707 2.048 3.072 1.707l67.584-21.504c1.365-0.341 2.048-1.707 1.707-3.072l-4.096-13.312c-0.341-1.707-1.707-2.389-3.072-1.707z" />
<glyph unicode="&#xe92b;" horiz-adv-x="1140" d="M666.965 479.403l-67.584-21.504c-1.365-0.341-2.048-1.707-1.707-3.072l4.096-13.312c0.341-1.365 1.707-2.048 3.072-1.707l67.584 21.504c1.365 0.341 2.048 1.707 1.707 3.072l-4.096 13.312c-0.341 1.365-1.707 2.048-3.072 1.707z" />
<glyph unicode="&#xe92c;" horiz-adv-x="1140" d="M680.619 377.003h-79.189c-3.413 0-5.803 2.731-5.803 5.803v52.565c0 3.413 2.731 5.803 5.803 5.803h79.189c3.413 0 5.803-2.731 5.803-5.803v-52.565c0.341-3.413-2.389-5.803-5.803-5.803z" />
<glyph unicode="&#xe92d;" horiz-adv-x="1140" d="M855.723 592.725c-13.312-1.024-26.283-3.755-39.595-5.461-17.067-2.389-34.475-6.144-51.541-5.803-14.336 0.341-23.552 6.144-28.331 16.725-0.683 3.413-0.683 6.827-0.683 10.923 2.048 30.72-5.803 59.051-21.845 84.992-28.331 45.397-71.68 67.243-123.563 74.069-75.776 9.899-157.355-23.893-178.517-110.933-5.803-16.043-8.533-32.768-8.192-50.517-4.437-10.923-13.653-17.067-28.672-17.408-17.067-0.341-34.475 3.755-51.541 5.803-13.312 1.707-26.283 4.779-39.595 5.461-10.24 0.683-15.701-5.461-14.677-15.019 0 0 0 0-0.341 0 0-0.341 0.341-1.024 0.341-1.365 0 0 0-0.341 0-0.341 5.803-26.283 12.971-51.883 24.576-75.435 5.12-16.043 10.24-32.085 16.725-47.445 11.264-26.283 26.283-31.061 51.541-18.091 45.056 22.869 92.16 39.936 142.336 47.787 92.501 14.336 179.883 0.683 261.12-46.763 17.749-10.24 25.941-9.899 40.96 4.437 36.523 34.816 51.883 80.555 62.123 128 3.755 10.24-1.707 17.067-12.629 16.384z" />
<glyph unicode="&#xe92e;" glyph-name="MultIsland" d="M503.467 166.4c-209.067-4.267-375.467-72.533-375.467-153.6h802.133c0 76.8-136.533 136.533-324.267 149.333 0 0 0 0 0 0-4.267 34.133-4.267 68.267-8.533 102.4 0 29.867-4.267 59.733-12.8 85.333-8.533 34.133-17.067 68.267-29.867 102.4-8.533 29.867-21.333 64-34.133 93.867-8.533 34.133-29.867 68.267-51.2 102.4 0 4.267-4.267 4.267-4.267 8.533 12.8 0 25.6 0 34.133 0 21.333-4.267 38.4-17.067 51.2-29.867s21.333-25.6 34.133-34.133c0 0 0 0 4.267 0 0 0 0 4.267 0 4.267 0 25.6-12.8 46.933-25.6 64-17.067 17.067-38.4 29.867-64 25.6 0 0 0 0 0 0s0 0 0 0c12.8 12.8 29.867 21.333 42.667 29.867 29.867 17.067 59.733 25.6 89.6 25.6 34.133 0 68.267-8.533 102.4-17.067 21.333-4.267 42.667-12.8 64-17.067 4.267 0 8.533 0 12.8-4.267 0 0 0 0 0 4.267-12.8 17.067-25.6 34.133-42.667 46.933-38.4 29.867-76.8 51.2-128 55.467-25.6 0-46.933 0-68.267-8.533-29.867-8.533-51.2-25.6-72.533-46.933-12.8-17.067-25.6-34.133-29.867-51.2-4.267-8.533-4.267-12.8-8.533-21.333 0 0 0 4.267 0 4.267 4.267 25.6 8.533 51.2 17.067 76.8 8.533 29.867 25.6 51.2 46.933 72.533 17.067 17.067 34.133 29.867 55.467 42.667 25.6 12.8 55.467 25.6 81.067 42.667 4.267-4.267 12.8 0 21.333 4.267 0 0 0 0 0 0-8.533 0-17.067 4.267-25.6 4.267s-12.8 0-21.333 4.267c-8.533 0-17.067 0-29.867 0 0 0-4.267 0-4.267 0-8.533 0-17.067 0-29.867-4.267-25.6-4.267-51.2-12.8-72.533-25.6-29.867-17.067-55.467-42.667-68.267-76.8-8.533-29.867-12.8-55.467-12.8-81.067 0 0 0-4.267 0-4.267 0 4.267-4.267 8.533-8.533 12.8-17.067 25.6-38.4 38.4-64 51.2s-55.467 17.067-89.6 17.067c-29.867-4.267-64-17.067-89.6-34.133-21.333-12.8-42.667-29.867-59.733-46.933-4.267-8.533-8.533-17.067-17.067-25.6 0 0 4.267 0 4.267 0 21.333 4.267 38.4 12.8 59.733 17.067 29.867 8.533 59.733 17.067 93.867 21.333 17.067 0 34.133 0 55.467 0 25.6-4.267 51.2-12.8 72.533-29.867 25.6-17.067 46.933-34.133 68.267-55.467 0 0 4.267-4.267 4.267-4.267s0 0 0 0 0 0 0 0c-34.133 25.6-68.267 46.933-106.667 51.2-25.6 4.267-51.2 4.267-72.533-4.267-25.6-8.533-46.933-21.333-68.267-38.4-25.6-21.333-42.667-51.2-55.467-81.067-12.8-21.333-17.067-42.667-21.333-68.267 0-4.267 0-8.533 0-12.8 0 0 0 0 0 0 8.533 8.533 17.067 17.067 25.6 25.6 21.333 21.333 42.667 42.667 64 64 21.333 17.067 42.667 34.133 68.267 46.933 12.8 4.267 29.867 8.533 46.933 12.8 17.067 0 38.4 0 55.467 0 4.267 0 12.8 0 17.067-4.267 0 0 0 0 0 0-29.867-12.8-42.667-34.133-46.933-68.267-4.267-25.6 8.533-51.2 21.333-72.533 0 0 4.267-4.267 4.267-4.267s0 4.267 0 4.267c0 17.067 0 38.4 0 55.467s4.267 34.133 12.8 46.933c8.533 8.533 17.067 17.067 25.6 25.6 4.267 4.267 8.533 8.533 17.067 4.267 0 0 0 0 0 0 8.533 0 12.8 0 17.067-12.8 0 0 0 0 0 0 12.8-29.867 25.6-64 34.133-98.133 8.533-38.4 17.067-72.533 17.067-110.933 4.267-34.133 4.267-64 8.533-98.133 0-42.667 0-81.067-4.267-123.733 0-12.8 0-25.6-4.267-38.4zM780.8 179.2c-89.6-4.267-157.867-29.867-157.867-64h337.067c0 29.867-59.733 59.733-136.533 64 0 0 0 0 0 0 0 12.8 0 29.867-4.267 42.667 0 12.8-4.267 25.6-4.267 38.4-4.267 12.8-8.533 29.867-12.8 42.667s-8.533 25.6-17.067 38.4c-8.533 17.067-12.8 29.867-25.6 42.667 0 0 0 0 0 4.267 4.267 0 8.533 0 12.8 0 8.533 0 17.067-8.533 21.333-12.8s8.533-8.533 12.8-12.8c0 0 0 0 0 0s0 0 0 0c0 8.533-4.267 21.333-12.8 25.6-8.533 8.533-17.067 12.8-25.6 12.8 0 0 0 0 0 0s0 0 0 0c4.267 4.267 12.8 8.533 17.067 12.8 12.8 8.533 25.6 8.533 38.4 8.533s29.867-4.267 42.667-8.533c8.533-4.267 17.067-4.267 25.6-8.533 0 0 4.267 0 4.267 0s0 0 0 0c-4.267 8.533-12.8 12.8-17.067 21.333-17.067 12.8-34.133 21.333-55.467 21.333-8.533 0-21.333 0-29.867-4.267-12.8-4.267-21.333-12.8-29.867-21.333-4.267-8.533-8.533-12.8-12.8-21.333 0-4.267 0-4.267-4.267-8.533 0 0 0 0 0 0 0 12.8 4.267 21.333 8.533 34.133s8.533 21.333 21.333 29.867c8.533 8.533 17.067 12.8 25.6 17.067 12.8 4.267 21.333 12.8 34.133 17.067 4.267 0 8.533 4.267 8.533 4.267s0 0 0 0c-4.267 0-8.533 0-12.8 4.267-4.267 0-4.267 0-8.533 0s-8.533 0-12.8 0c0 0 0 0 0 0-4.267 0-8.533 0-12.8 0-12.8 0-21.333-4.267-29.867-12.8-12.8-8.533-21.333-17.067-29.867-34.133-4.267-12.8-8.533-21.333-4.267-34.133 0 0 0 0 0 0 0 4.267-4.267 4.267-4.267 8.533-8.533 8.533-17.067 17.067-25.6 21.333-12.8 4.267-25.6 8.533-38.4 4.267-12.8 0-25.6-4.267-38.4-12.8-8.533-4.267-17.067-12.8-25.6-21.333-4.267-4.267-4.267-8.533-8.533-8.533 0 0 0 0 0 0 8.533 4.267 17.067 4.267 25.6 8.533 12.8 4.267 25.6 8.533 38.4 8.533 8.533 0 17.067 0 21.333 0 12.8 0 21.333-4.267 29.867-12.8s21.333-17.067 29.867-25.6c0 0 0 0 0-4.267 0 0 0 0 0 0s0 0 0 0c-12.8 12.8-25.6 21.333-42.667 21.333-12.8 0-21.333 0-29.867 0-8.533-4.267-21.333-8.533-29.867-17.067s-17.067-21.333-25.6-34.133c-4.267-8.533-8.533-21.333-8.533-29.867 0 0 0-4.267 0-4.267s0 0 0 0c4.267 4.267 8.533 8.533 8.533 12.8 8.533 8.533 17.067 17.067 25.6 25.6s17.067 12.8 29.867 21.333c8.533 4.267 12.8 4.267 21.333 4.267s17.067 0 21.333 0c4.267 0 4.267 0 8.533 0 0 0 0 0 0 0-12.8-4.267-17.067-12.8-21.333-29.867 0-12.8 4.267-21.333 8.533-29.867 0 0 0 0 0-4.267 0 0 0 0 0 0 0 8.533 0 17.067 0 25.6s0 12.8 4.267 21.333c4.267 4.267 8.533 8.533 12.8 12.8 0 0 4.267 4.267 8.533 0 0 0 0 0 0 0 4.267 0 4.267 0 8.533-4.267 0 0 0 0 0 0 4.267-12.8 8.533-25.6 12.8-42.667s8.533-29.867 8.533-46.933c0-12.8 4.267-25.6 4.267-42.667s0-34.133 0-51.2c17.067 0 17.067-8.533 17.067-12.8zM238.933 179.2c-89.6-4.267-157.867-29.867-157.867-64h337.067c0 29.867-59.733 59.733-136.533 64 0 0 0 0 0 0 0 12.8 0 29.867-4.267 42.667 0 12.8-4.267 25.6-4.267 38.4-4.267 12.8-8.533 29.867-12.8 42.667s-8.533 25.6-17.067 38.4c-8.533 17.067-12.8 29.867-25.6 42.667 0 0 0 0 0 4.267 4.267 0 8.533 0 12.8 0 8.533 0 17.067-8.533 21.333-12.8s8.533-8.533 12.8-12.8c0 0 0 0 0 0s0 0 0 0c0 8.533-4.267 21.333-12.8 25.6-8.533 8.533-17.067 12.8-25.6 12.8 0 0 0 0 0 0s0 0 0 0c4.267 4.267 12.8 8.533 17.067 12.8 12.8 8.533 25.6 8.533 38.4 8.533s29.867-4.267 42.667-8.533c8.533-4.267 17.067-4.267 25.6-8.533 0 0 4.267 0 4.267 0s0 0 0 0c-4.267 8.533-12.8 12.8-17.067 21.333-17.067 12.8-34.133 21.333-55.467 21.333-8.533 0-21.333 0-29.867-4.267-12.8-4.267-21.333-12.8-29.867-21.333-4.267-8.533-8.533-12.8-12.8-21.333 0-4.267 0-4.267-4.267-8.533 0 0 0 0 0 0 0 12.8 4.267 21.333 8.533 34.133s8.533 21.333 21.333 29.867c8.533 8.533 17.067 12.8 25.6 17.067 12.8 4.267 21.333 12.8 34.133 17.067 4.267 0 8.533 4.267 8.533 4.267s0 0 0 0c-4.267 0-8.533 0-12.8 4.267-4.267 0-4.267 0-8.533 0s-8.533 0-12.8 0c0 0 0 0 0 0-4.267 0-8.533 0-12.8 0-12.8 0-21.333-4.267-29.867-12.8-12.8-8.533-21.333-17.067-29.867-34.133-4.267-12.8-8.533-21.333-4.267-34.133 0 0 0 0 0 0 0 4.267-4.267 4.267-4.267 8.533-8.533 8.533-17.067 17.067-25.6 21.333-12.8 4.267-25.6 8.533-38.4 4.267-12.8 0-25.6-4.267-38.4-12.8-8.533-4.267-17.067-12.8-25.6-21.333-4.267-4.267-4.267-8.533-8.533-8.533 0 0 0 0 0 0 8.533 4.267 17.067 4.267 25.6 8.533 12.8 4.267 25.6 8.533 38.4 8.533 8.533 0 17.067 0 21.333 0 12.8 0 21.333-4.267 29.867-12.8s21.333-17.067 29.867-25.6c0 0 0 0 0-4.267 0 0 0 0 0 0s0 0 0 0c-12.8 12.8-25.6 21.333-42.667 21.333-12.8 0-21.333 0-29.867 0-8.533-4.267-21.333-8.533-29.867-17.067 4.267-4.267-4.267-12.8-8.533-25.6-4.267-8.533-8.533-21.333-8.533-29.867 0 0 0-4.267 0-4.267s0 0 0 0c4.267 4.267 8.533 8.533 8.533 12.8 8.533 8.533 17.067 17.067 25.6 25.6s17.067 12.8 29.867 21.333c8.533 4.267 12.8 4.267 21.333 4.267s17.067 0 21.333 0c4.267 0 4.267 0 8.533 0 0 0 0 0 0 0-12.8-4.267-17.067-12.8-21.333-29.867 0-12.8 4.267-21.333 8.533-29.867 0 0 0 0 0-4.267 0 0 0 0 0 0 0 8.533 0 17.067 0 25.6s0 12.8 4.267 21.333c4.267 4.267 8.533 8.533 12.8 12.8 0 0 4.267 4.267 8.533 0 0 0 0 0 0 0 4.267 0 4.267 0 8.533-4.267 0 0 0 0 0 0 4.267-12.8 8.533-25.6 12.8-42.667s8.533-29.867 8.533-46.933c0-12.8 4.267-25.6 4.267-42.667s0-34.133 0-51.2c0-8.533 0-17.067 0-21.333z" />
<glyph unicode="&#xe92f;" glyph-name="Island" d="M503.467 166.4c-209.067-4.267-375.467-72.533-375.467-153.6h802.133c0 76.8-136.533 136.533-324.267 149.333 0 0 0 0 0 0-4.267 34.133-4.267 68.267-8.533 102.4 0 29.867-4.267 59.733-12.8 85.333-8.533 34.133-17.067 68.267-29.867 102.4-8.533 29.867-21.333 64-34.133 93.867-8.533 34.133-29.867 68.267-51.2 102.4 0 4.267-4.267 4.267-4.267 8.533 12.8 0 25.6 0 34.133 0 21.333-4.267 38.4-17.067 51.2-29.867s21.333-25.6 34.133-34.133c0 0 0 0 4.267 0 0 0 0 4.267 0 4.267 0 25.6-12.8 46.933-25.6 64-17.067 17.067-38.4 29.867-64 25.6 0 0 0 0 0 0s0 0 0 0c12.8 12.8 29.867 21.333 42.667 29.867 29.867 17.067 59.733 25.6 89.6 25.6 34.133 0 68.267-8.533 102.4-17.067 21.333-4.267 42.667-12.8 64-17.067 4.267 0 8.533 0 12.8-4.267 0 0 0 0 0 4.267-12.8 17.067-25.6 34.133-42.667 46.933-38.4 29.867-76.8 51.2-128 55.467-25.6 0-46.933 0-68.267-8.533-29.867-8.533-51.2-25.6-72.533-46.933-12.8-17.067-25.6-34.133-29.867-51.2-4.267-8.533-4.267-12.8-8.533-21.333 0 0 0 4.267 0 4.267 4.267 25.6 8.533 51.2 17.067 76.8 8.533 29.867 25.6 51.2 46.933 72.533 17.067 17.067 34.133 29.867 55.467 42.667 25.6 12.8 55.467 25.6 81.067 42.667 4.267-4.267 12.8 0 21.333 4.267 0 0 0 0 0 0-8.533 0-17.067 4.267-25.6 4.267s-12.8 0-21.333 4.267c-8.533 0-17.067 0-29.867 0 0 0-4.267 0-4.267 0-8.533 0-17.067 0-29.867-4.267-25.6-4.267-51.2-12.8-72.533-25.6-29.867-17.067-55.467-42.667-68.267-76.8-8.533-29.867-12.8-55.467-12.8-81.067 0 0 0-4.267 0-4.267 0 4.267-4.267 8.533-8.533 12.8-17.067 25.6-38.4 38.4-64 51.2s-55.467 17.067-89.6 17.067c-29.867-4.267-64-17.067-89.6-34.133-21.333-12.8-42.667-29.867-59.733-46.933-4.267-8.533-8.533-17.067-17.067-25.6 0 0 4.267 0 4.267 0 21.333 4.267 38.4 12.8 59.733 17.067 29.867 8.533 59.733 17.067 93.867 21.333 17.067 0 34.133 0 55.467 0 25.6-4.267 51.2-12.8 72.533-29.867 25.6-17.067 46.933-34.133 68.267-55.467 0 0 4.267-4.267 4.267-4.267s0 0 0 0 0 0 0 0c-34.133 25.6-68.267 46.933-106.667 51.2-25.6 4.267-51.2 4.267-72.533-4.267-25.6-8.533-46.933-21.333-68.267-38.4-25.6-21.333-42.667-51.2-55.467-81.067-12.8-21.333-17.067-42.667-21.333-68.267 0-4.267 0-8.533 0-12.8 0 0 0 0 0 0 8.533 8.533 17.067 17.067 25.6 25.6 21.333 21.333 42.667 42.667 64 64 21.333 17.067 42.667 34.133 68.267 46.933 12.8 4.267 29.867 8.533 46.933 12.8 17.067 0 38.4 0 55.467 0 4.267 0 12.8 0 17.067-4.267 0 0 0 0 0 0-29.867-12.8-42.667-34.133-46.933-68.267-4.267-25.6 8.533-51.2 21.333-72.533 0 0 4.267-4.267 4.267-4.267s0 4.267 0 4.267c0 17.067 0 38.4 0 55.467s4.267 34.133 12.8 46.933c8.533 8.533 17.067 17.067 25.6 25.6 4.267 4.267 8.533 8.533 17.067 4.267 0 0 0 0 0 0 8.533 0 12.8 0 17.067-12.8 0 0 0 0 0 0 12.8-29.867 25.6-64 34.133-98.133 8.533-38.4 17.067-72.533 17.067-110.933 4.267-34.133 4.267-64 8.533-98.133 0-42.667 0-81.067-4.267-123.733 0-12.8 0-25.6-4.267-38.4z" />
<glyph unicode="&#xe930;" glyph-name="Snake" d="M661.333 268.8c-8.533 38.4-21.333 68.267-38.4 93.867-12.8 17.067-21.333 34.133-34.133 51.2-46.933 76.8-76.8 162.133-81.067 174.933 0 12.8 21.333 170.667 21.333 170.667s-4.267 12.8-8.533 25.6c17.067 0 34.133-4.267 42.667-4.267 17.067-4.267 8.533 21.333-8.533 38.4 17.067 0 59.733-4.267 64-12.8l21.333-4.267-12.8 21.333 21.333 8.533h-89.6l21.333 17.067c0 0-34.133 42.667-102.4 38.4 0 0-64 0-76.8-59.733s-64-140.8-59.733-157.867c4.267-17.067 68.267-72.533 85.333-106.667 12.8-25.6 76.8-183.467 132.267-273.067 93.867-149.333-76.8-247.467-76.8-247.467-42.667-17.067-8.533 55.467-21.333 72.533-8.533 17.067-25.6 42.667-76.8 8.533-46.933-34.133-132.267-72.533-157.867-17.067-12.8 59.733-12.8 59.733-12.8 59.733s-42.667-81.067 25.6-119.467c68.267-34.133 140.8 34.133 149.333 34.133 12.8-4.267-12.8-140.8 149.333-89.6 123.733 38.4 145.067 174.933 123.733 277.333zM494.933 832c-8.533 0-17.067 8.533-17.067 17.067s8.533 17.067 17.067 17.067c8.533 0 17.067-8.533 17.067-17.067 0-12.8-8.533-17.067-17.067-17.067z" />
<glyph unicode="&#xe931;" glyph-name="Pig" horiz-adv-x="2048" d="M1851.733 640c0 0-46.933-12.8-46.933-46.933-25.6 17.067-55.467 25.6-89.6 17.067v0c-4.267 0-8.533-4.267-12.8-4.267-17.067 25.6-34.133 38.4-34.133 38.4-174.933 200.533-541.867 170.667-631.467 166.4-46.933 0-149.333 0-238.933 0 21.333 64-4.267 119.467-4.267 119.467-21.333 0-42.667-4.267-59.733-8.533-8.533 12.8-12.8 21.333-12.8 21.333-102.4-25.6-123.733-89.6-128-132.267-12.8 0-25.6-4.267-42.667-4.267 0 0 0 0 0 0-132.267-12.8-209.067-153.6-209.067-153.6s-68.267-38.4-183.467-38.4c0 0-34.133-128 42.667-221.867l153.6 12.8-102.4-42.667c0 0 166.4-157.867 401.067-213.333 12.8-25.6 42.667-102.4 17.067-192h59.733c0 0 85.333 132.267 85.333 140.8 0 0 8.533 0 17.067 0 38.4-8.533 81.067-17.067 110.933-21.333 4.267-34.133 8.533-76.8-4.267-119.467h59.733c0 0 38.4 59.733 64 102.4 42.667-4.267 93.867-8.533 149.333-8.533 59.733-4.267 119.467-4.267 170.667 12.8 4.267-34.133 8.533-68.267 0-106.667h72.533c0 0 25.6 59.733 51.2 140.8 21.333 8.533 38.4 17.067 59.733 25.6 12.8-42.667 25.6-106.667 12.8-166.4h72.533c0 0 110.933 290.133 119.467 452.267 55.467 12.8 89.6 72.533 76.8 128 0 4.267-4.267 8.533-4.267 12.8 0 0 21.333 38.4 46.933 29.867 21.333-8.533 72.533-21.333 72.533-21.333s-21.333 102.4-110.933 81.067zM490.667 567.467c-17.067 0-34.133 12.8-34.133 34.133 0 17.067 12.8 34.133 34.133 34.133 17.067 0 34.133-12.8 34.133-34.133s-12.8-34.133-34.133-34.133zM1762.133 469.333c-4.267 29.867-17.067 55.467-25.6 81.067 21.333 0 42.667-12.8 46.933-34.133 4.267-17.067-4.267-34.133-21.333-46.933z" />
<glyph unicode="&#xe932;" glyph-name="Chicken" d="M115.2 584.533c-8.533 21.333-29.867 51.2-29.867 51.2-55.467-42.667-38.4-81.067-29.867-93.867 17.067 17.067 55.467 42.667 59.733 42.667 0 0 0 0 0 0zM64 554.667c21.333-17.067 59.733 12.8 55.467 21.333 0 0-4.267 8.533-8.533 17.067l-46.933-38.4zM576 166.4l-42.667-106.667c0 0 68.267-38.4 59.733-59.733-8.533-25.6-46.933 29.867-81.067 25.6s-110.933-42.667-132.267-42.667c-25.6 0 34.133 59.733 106.667 76.8l38.4 98.133 51.2 8.533zM217.6 776.533c0 8.533 4.267 21.333 0 34.133-8.533 34.133-21.333 55.467-38.4 55.467-12.8-4.267-17.067-17.067-21.333-34.133-12.8 17.067-25.6 25.6-38.4 21.333-8.533-4.267-12.8-17.067-8.533-38.4-17.067 17.067-34.133 25.6-42.667 17.067-8.533-4.267-8.533-21.333 0-38.4-17.067 12.8-34.133 12.8-38.4 4.267-12.8-8.533-4.267-38.4 12.8-59.733 8.533-8.533 17.067-12.8 25.6-17.067zM947.2 524.8c115.2 153.6 17.067 132.267 17.067 132.267 72.533 174.933-55.467 192-55.467 192-29.867-145.067-123.733-204.8-136.533-204.8l-42.667 12.8c-59.733 21.333-153.6 42.667-264.533 38.4-17.067 0-34.133-4.267-51.2-4.267v0c0 0-34.133-4.267-170.667 72.533v0c-21.333 12.8-46.933 25.6-72.533 25.6-59.733 0-106.667-46.933-106.667-102.4 0-12.8 0-21.333 4.267-34.133l89.6-145.067 4.267-4.267h-4.267c17.067-25.6 34.133-46.933 51.2-72.533v0c0 0 68.267-106.667 162.133-149.333 72.533-42.667 106.667-93.867 106.667-93.867v0c4.267-4.267 4.267-8.533 8.533-12.8 12.8-17.067 34.133-25.6 55.467-25.6v0c0 0 0 0 4.267 0 0 0 0 0 0 0s0 0 0 0c4.267 0 12.8 0 25.6 4.267 4.267 0 4.267 0 8.533 4.267 25.6 12.8 64 38.4 119.467 98.133 12.8 12.8 25.6 25.6 34.133 38.4 0 0 4.267 4.267 4.267 4.267v0c29.867 34.133 55.467 72.533 76.8 123.733v0l4.267 12.8c38.4 4.267 85.333 17.067 119.467 42.667 76.8 42.667 8.533 46.933 8.533 46.933zM174.933 661.333c-8.533-12.8-25.6-12.8-38.4 0-8.533 8.533-8.533 25.6 0 34.133s25.6 8.533 38.4 0c8.533-8.533 8.533-25.6 0-34.133z" />
</font>
</defs>
</svg>
